<svg width="34" height="34" viewBox="0 0 34 34" fill="none" xmlns="http://www.w3.org/2000/svg">
<path d="M17 0.333332C19.1887 0.333332 21.3559 0.764428 23.378 1.60201C25.4001 2.43958 27.2374 3.66724 28.7851 5.21488C30.3327 6.76253 31.5604 8.59985 32.398 10.6219C33.2355 12.644 33.6666 14.8113 33.6666 17C33.6666 21.4203 31.9107 25.6595 28.7851 28.7851C25.6595 31.9107 21.4203 33.6667 17 33.6667C9.33331 33.6667 2.91665 28.5333 0.933313 21.55L7.31665 24.1833C7.53537 25.2509 8.1158 26.2104 8.95993 26.8997C9.80406 27.5889 10.8602 27.9658 11.95 27.9667C14.55 27.9667 16.6666 25.85 16.6666 23.25V23.0333L22.3333 18.9833H22.4666C25.9333 18.9833 28.75 16.1667 28.75 12.7C28.75 9.23333 25.9333 6.41666 22.4666 6.41666C19 6.41666 16.1666 9.23333 16.1666 12.7V12.7833L12.2166 18.55L11.95 18.5333C10.9666 18.5333 10.05 18.8333 9.29998 19.35L0.333313 15.6667C1.04998 7.08333 8.21665 0.333332 17 0.333332ZM10.8 25.6167C12.1333 26.1667 13.6666 25.55 14.2166 24.2167C14.7666 22.8833 14.1333 21.3667 12.8333 20.8167L10.7 19.9333C11.5166 19.6333 12.4333 19.6167 13.3 19.9833C14.1833 20.3333 14.8666 21.0167 15.2166 21.9C15.5833 22.7667 15.5833 23.7333 15.2166 24.6C14.5 26.4 12.3833 27.2667 10.5833 26.5167C9.74998 26.1667 9.11664 25.5333 8.76664 24.7833L10.8 25.6167ZM26.6666 12.7C26.6666 15.0167 24.7833 16.9 22.4666 16.9C21.3556 16.8956 20.2916 16.4511 19.5076 15.664C18.7235 14.8768 18.2833 13.811 18.2833 12.7C18.2811 12.15 18.3878 11.605 18.5973 11.0965C18.8067 10.588 19.1148 10.1259 19.5037 9.73702C19.8926 9.34812 20.3546 9.04006 20.8631 8.83061C21.3717 8.62116 21.9167 8.51446 22.4666 8.51666C23.5777 8.51665 24.6434 8.95687 25.4306 9.74092C26.2178 10.525 26.6622 11.589 26.6666 12.7ZM19.3333 12.7C19.3333 14.4333 20.7333 15.85 22.4833 15.85C24.2166 15.85 25.6166 14.4333 25.6166 12.7C25.6166 10.9667 24.2166 9.55 22.4833 9.55C20.7333 9.55 19.3333 10.9667 19.3333 12.7Z" fill="white"/>
</svg>
